<?xml version="1.0" encoding="UTF-8"?>
<svg id="Layer_2" data-name="Layer 2" xmlns="http://www.w3.org/2000/svg" viewBox="0 0 412.9 253.2">
  <defs>
    <style>
      .cls-1 {
        fill: #1e6ef9;
      }

      .cls-2 {
        fill: #fff;
      }
    </style>
  </defs>
  <g id="Layer_1-2" data-name="Layer 1">
    <g>
      <g id="_1e6ef9ff" data-name="#1e6ef9ff">
        <path class="cls-1" d="M146.04,1.12c28.25-3.48,57.73,1.08,82.9,14.62-2.04,9.74-6.93,18.6-9.31,28.25-3.84-.59-7.25-2.53-10.82-3.94-6.8-2.76-13.9-4.8-21.16-5.88-.07,24.64-.06,49.28,0,73.92,0,8.67,1.84,17.81,7.77,24.46,11.85,13.86,36.12,13.86,47.91-.08,5.77-6.67,7.77-15.7,7.48-24.33,.12-34.26,.04-68.52,.03-102.78,8.35-.65,16.74-.34,25.11-.4,6.9,.01,13.81-.18,20.7,.4-.11,31.24-.01,62.49-.05,93.73,.06,8.25-.48,16.82,2.56,24.66,3.95,10.6,14.56,18.21,25.8,18.9,11.99,1.77,24.96-4.14,30.36-15.2,3.07-5.95,3.98-12.75,3.92-19.37-.07-34.37,.1-68.74-.08-103.11,15.33,.16,30.68-.43,46,.35-.73,36.93-.02,73.88-.4,110.81-.45,25.54-16.24,50.7-40.14,60.48-17.5,7.45-37.62,7.16-55.5,1.17-14.08-4.96-26.91-14.01-35.08-26.65-11,17.28-30.68,27.63-50.63,30.39-12.24,1.07-24.9,.9-36.56-3.41-10.58-3.6-20.18-9.97-27.57-18.34-5.26-5.6-8.93-12.42-12.5-19.15-2.58-8.61-4.76-17.47-4.72-26.52,0-19,0-38.01,0-57.01-.03-7.67,.18-15.35-.41-23.01-11.17,1.27-21.26,6.39-31.69,10.13-1.94-6.55-4.44-12.92-6.74-19.34-1.03-2.99-2.54-5.88-2.82-9.07,13.97-7.97,29.78-12.42,45.64-14.68Z"/>
      </g>
      <g id="_020202ff" data-name="#020202ff">
        <path class="cls-2" d="M45.18,83.31c1.31-.8,2.47-2.79,4.21-1.89,5.9,6.82,11.59,13.84,17.43,20.72-7.18,5.67-13.94,11.88-21.11,17.54-.29-.02-.87-.06-1.16-.08-5.74-6.98-11.52-13.93-17.48-20.72,5.7-5.56,12.14-10.3,18.11-15.57Z"/>
        <path class="cls-2" d="M62.5,119.13c12.08-10.44,24.43-20.57,36.61-30.89,3.43,2.81,5.81,6.62,8.76,9.9,7.64,8.87,15.05,17.94,22.68,26.82-12.23,10.41-24.65,20.61-36.77,31.16-10.81-11.99-20.85-24.66-31.28-36.99Z"/>
        <path class="cls-2" d="M24.54,116.43l.61-.47c4.53,4.86,8.94,9.89,12.87,15.25-3.71,3.99-8.16,7.2-12.23,10.8-.99,.74-1.91,1.89-3.29,1.79-4.38-4.71-8.48-9.71-12.43-14.77,4.31-4.74,9.73-8.31,14.47-12.6Z"/>
        <path class="cls-2" d="M32.42,149.63c7.45-6.5,15.29-12.57,22.64-19.21,6.61,7.92,13.39,15.7,19.86,23.75-7.65,6.7-15.65,12.98-23.25,19.75-6.03-6.21-11.22-13.17-16.97-19.63-.87-1.46-3.19-2.72-2.28-4.66Z"/>
        <path class="cls-2" d="M.04,218.05c9.27,.05,18.55-.05,27.82,.16-.02,1.92-.04,3.83-.07,5.75-3.59,.12-7.19,.13-10.78,.19-.21,9.62,.1,19.25-.17,28.87-2.19,.06-4.37,.06-6.56,.05-.03-9.7-.04-19.4-.01-29.1-3.42,.12-6.84,.11-10.27,.11,.02-2.01,.03-4.02,.04-6.03Z"/>
        <path class="cls-2" d="M38.57,218.12c8.44-.02,16.88-.14,25.31,.07,.04,1.85,.04,3.7,.03,5.56-6.28-.02-12.57,.04-18.86-.05-.1,2.92-.1,5.85,0,8.78,5.61-.09,11.22-.01,16.83-.07-.02,1.87-.04,3.73-.05,5.61-5.62,.12-11.26-.09-16.87,.3-.08,3.05-.03,6.11,.09,9.18,6.47-.15,12.93-.05,19.4-.08-.02,1.86-.03,3.72-.02,5.59-8.63,.16-17.26,.1-25.89,.04-.08-11.64-.15-23.29,.03-34.93Z"/>
        <path class="cls-2" d="M86.55,218.68c6.45-1.44,13.89,.05,18.39,5.16-1.22,1.44-2.43,2.89-3.65,4.34-2.77-1.94-5.68-4.27-9.29-3.91-5.82-.87-11.49,4.09-11.9,9.84-.65,4.18,1.42,8.66,5.03,10.85,4.41,3.02,10.52,2.06,14.69-.97,2.27-1.82,3.9,1.65,5.02,3.19-6.51,7.2-19.01,7.94-26.01,1.04-5.46-4.71-7.03-13.02-4.24-19.57,2.34-4.8,6.74-8.64,11.96-9.97Z"/>
        <path class="cls-2" d="M116.44,218.09c2.11,.01,4.22,.02,6.33,.06,.27,4.91,.14,9.83,.27,14.75,5.82,.27,11.65,.22,17.47,.01-.13-4.96-.02-9.91-.05-14.87,2.11,.03,4.22,.07,6.33,.13,.25,11.61,.24,23.25,.02,34.86-2.13,.05-4.26,.03-6.39-.03,.07-4.76,0-9.52,0-14.27-5.87,.08-11.74,.07-17.61-.03,.08,4.77,.23,9.55,0,14.33-2.14,.05-4.27,.03-6.4-.03,.07-11.64,.04-23.27,.02-34.91Z"/>
        <path class="cls-2" d="M175.7,218.24c2.38-.1,4.76-.26,7.14-.16,3.34,8.83,5.23,18.16,8.38,27.07,2.76-9.03,5.4-18.1,8-27.18,2.3,.14,4.6,.26,6.9,.36,2.11,9.07,4.96,17.97,7.78,26.85,2.77-8.93,5.26-17.94,7.78-26.94,2.33-.13,4.65-.13,6.98-.04-3.75,11.59-7.79,23.09-11.37,34.74-2.47,.15-4.96,.14-7.43-.02-2.06-8.52-4.76-16.88-7.32-25.26-1.12,1.48-1.49,3.32-2.01,5.06-1.81,6.81-4.13,13.48-6.05,20.27-2.33,.08-4.67,.08-7,0-2.72-8.95-5.98-17.72-8.78-26.64-.86-2.75-1.67-5.54-3-8.11Z"/>
        <path class="cls-2" d="M238.58,218.12c2.08,.01,4.16,.06,6.24,.12,.23,11.58,.22,23.17,.01,34.75-2.1,.07-4.19,.1-6.28,.1-.1-11.66-.16-23.32,.03-34.97Z"/>
        <path class="cls-2" d="M256.53,218.2c9.73-.21,19.46-.13,29.19,0-.3,1.9,.46,4.21-.99,5.77-6.69,7.69-13.15,15.6-19.75,23.38,6.96,.17,13.92,.06,20.88,.06,.01,1.86,.03,3.71,.01,5.58-10.06,.19-20.14,.26-30.2-.07,.26-1.72,.23-3.52,.84-5.17,6.65-8.05,13.49-15.93,20.13-23.97-6.7-.04-13.39,.02-20.09-.05,0-1.84-.01-3.68-.02-5.52Z"/>
        <path class="cls-2" d="M307.23,218.22c2.38-.11,4.77-.12,7.16-.05,4.93,11.64,9.93,23.26,15.03,34.83-2.4,.03-4.81,.27-7.19-.13-1.4-2.18-2.06-4.72-3.04-7.09-5.77,.02-11.54,.05-17.31-.03-.89,2.42-1.84,4.81-2.77,7.22-2.35,.09-4.69,.11-7.03,.07,4.83-11.7,10.26-23.14,15.15-34.82m3.36,7.25c-2.15,4.79-3.99,9.7-6.19,14.47,4.1,.2,8.21,.23,12.31,0-2.02-4.84-3.94-9.71-6.12-14.48Z"/>
        <path class="cls-2" d="M339.42,218.18c7.74,.33,16.12-1.5,23.34,2.05,7.81,4.78,6.51,17.99-1.7,21.75,2.64,3.67,5.09,7.48,7.68,11.19-2.52-.06-5.05,.04-7.56-.27-2.59-2.88-3.68-6.91-6.44-9.61-2.87-.42-5.79-.19-8.67-.08-.15,3.27-.09,6.54-.26,9.81-2.12,.05-4.25,.03-6.37,0,.08-11.61,.12-23.22-.02-34.83m6.69,5.55c-.2,4.41-.25,8.82-.05,13.23,4.24,.05,8.75,.76,12.79-.89,3.65-2.63,3.69-9.12-.39-11.42-3.99-1.35-8.23-.77-12.35-.92Z"/>
        <path class="cls-2" d="M380.43,218.11c8.45,.51,17.86-1.88,25.35,3.18,9.22,6.2,9.58,21.61,.53,28.1-7.48,5.57-17.26,3.31-25.9,3.59,.09-11.62,.05-23.25,.02-34.87m6.69,5.94c-.27,7.65-.25,15.31-.05,22.96,3.86,.05,7.76,.32,11.61-.24,8.47-2.56,10.15-15.43,3.18-20.5-4.14-3.37-9.83-2.05-14.74-2.22Z"/>
      </g>
    </g>
  </g>
</svg>