<svg width="400" height="400" viewBox="0 0 400 400" fill="none" xmlns="http://www.w3.org/2000/svg">
<mask id="mask0_292_118" style="mask-type:luminance" maskUnits="userSpaceOnUse" x="106" y="46" width="214" height="68">
<path d="M106.16 46H319.738V113.176H106.16V46Z" fill="white"/>
</mask>
<g mask="url(#mask0_292_118)">
<path d="M120.069 80.5151C143.862 64.4164 171.764 55.9808 200.593 55.9808C238.105 55.9808 274.196 70.6581 300.862 96.6137L282.106 95.1924C279.48 94.9452 277.07 97.1081 277.07 99.7346C276.822 102.392 278.985 104.802 281.643 104.802L310.009 106.718C310.009 106.718 310.009 106.718 310.256 106.718C310.256 106.718 310.256 106.718 310.503 106.718C310.719 106.718 311.214 106.718 311.461 106.718H311.708C311.924 106.718 312.172 106.718 312.172 106.471C312.419 106.471 312.419 106.471 312.419 106.254C312.666 106.254 312.666 106.007 312.913 106.007L313.129 105.76C313.377 105.76 313.377 105.513 313.624 105.513L313.871 105.266C313.871 105.049 314.087 105.049 314.087 104.802L314.334 104.555C314.334 104.308 314.582 104.308 314.582 104.061C314.582 103.844 314.582 103.844 314.829 103.597C314.829 103.35 314.829 103.35 315.076 103.103C315.076 102.886 315.076 102.886 315.076 102.639C315.076 102.392 315.076 102.392 315.076 102.145V101.681C315.787 100.476 315.787 99.0239 315.292 97.8188L316.034 73.5318C316.034 70.9053 314.087 68.7424 311.461 68.4952C308.803 68.4952 306.64 70.4109 306.393 73.0683L305.93 87.7147C277.564 61.5119 239.805 46.3711 200.593 46.3711C169.817 46.3711 140.247 55.5174 114.754 72.5739C112.591 74.0262 111.881 77.147 113.549 79.31C115.002 81.473 117.906 81.9674 120.069 80.5151Z" fill="#1E6EF9"/>
</g>
<mask id="mask1_292_118" style="mask-type:luminance" maskUnits="userSpaceOnUse" x="303" y="128" width="52" height="168">
<path d="M303.924 128.997H354.506V295.113H303.924V128.997Z" fill="white"/>
</mask>
<g mask="url(#mask1_292_118)">
<path d="M338.626 131.964C337.421 129.554 334.547 128.596 332.137 129.801C329.727 131.006 328.769 133.88 329.974 136.29C339.831 156.251 344.867 177.881 344.867 200.252C344.867 228.618 336.71 255.81 321.322 279.355L318.201 263.009C317.707 260.383 315.296 258.683 312.67 259.178C310.013 259.641 308.344 262.051 308.808 264.709L313.628 291.159V291.375C313.628 291.622 313.628 291.622 313.875 291.869C313.875 292.117 314.091 292.117 314.091 292.364C314.091 292.364 314.091 292.58 314.339 292.58C314.339 292.827 314.586 292.827 314.586 292.827L314.833 293.074L315.08 293.322L315.296 293.569C315.296 293.569 315.544 293.785 315.791 293.785L316.038 294.032C316.254 294.032 316.254 294.28 316.502 294.28C316.502 294.28 316.749 294.28 316.749 294.527C316.996 294.527 316.996 294.527 317.243 294.743H317.459C317.707 294.743 317.954 294.743 318.201 294.743C318.417 294.743 318.665 294.743 319.159 294.743L345.609 288.749C348.235 288.254 349.935 285.628 349.224 282.97C348.73 280.344 346.072 278.644 343.446 279.355L330.221 282.26C345.856 257.725 354.261 229.36 354.261 199.789C354.508 176.212 349.224 153.378 338.626 131.964Z" fill="#1E6EF9"/>
</g>
<mask id="mask2_292_118" style="mask-type:luminance" maskUnits="userSpaceOnUse" x="98" y="303" width="206" height="52">
<path d="M98.2578 303.021H303.925V354.5H98.2578V303.021Z" fill="white"/>
</mask>
<g mask="url(#mask2_292_118)">
<path d="M296.32 320.973C298.483 319.274 298.699 316.4 297.03 314.237C295.331 312.074 292.457 311.827 290.294 313.496C264.555 333.951 233.563 344.766 200.593 344.766C171.022 344.766 142.162 335.62 118.122 318.81L135.21 315.658C137.836 315.195 139.535 312.785 139.041 310.127C138.578 307.501 136.167 305.802 133.51 306.296L104.897 311.58C104.681 311.58 104.681 311.58 104.434 311.827C104.186 311.827 104.186 311.827 103.939 312.074C103.692 312.074 103.692 312.321 103.476 312.321C103.229 312.321 103.229 312.538 102.981 312.538C102.734 312.538 102.734 312.785 102.487 312.785L102.271 313.032L102.023 313.279C102.023 313.279 101.776 313.496 101.776 313.743C101.776 313.99 101.529 313.99 101.529 314.237C101.529 314.484 101.313 314.484 101.313 314.701C101.313 314.948 101.313 314.948 101.066 315.195C101.066 315.442 101.066 315.442 100.818 315.658C100.818 315.906 100.818 315.906 100.818 316.153C100.818 316.4 100.818 316.4 100.818 316.647C100.818 316.864 100.818 316.864 100.818 317.111C100.818 317.358 100.818 317.358 100.818 317.605L107.307 346.218C107.802 348.381 109.717 350.05 111.88 350.05C112.128 350.05 112.591 350.05 112.838 350.05C115.496 349.586 117.164 346.929 116.454 344.271L112.591 327.462C138.825 344.519 169.354 354.159 200.593 354.159C235.726 354.159 268.881 342.603 296.32 320.973Z" fill="#1E6EF9"/>
</g>
<mask id="mask3_292_118" style="mask-type:luminance" maskUnits="userSpaceOnUse" x="46" y="105" width="53" height="183">
<path d="M46 105.267H98.2511V287.203H46V105.267Z" fill="white"/>
</mask>
<g mask="url(#mask3_292_118)">
<path d="M88.5471 145.684C91.2044 145.19 92.873 142.779 92.4095 140.153L86.8785 109.377C86.8785 109.13 86.8785 109.13 86.8785 109.13C86.8785 108.883 86.8785 108.883 86.6313 108.635C86.6313 108.419 86.3841 108.419 86.3841 108.172C86.3841 107.925 86.1369 107.925 86.1369 107.677C86.1369 107.43 85.9206 107.43 85.9206 107.43C85.9206 107.214 85.6734 107.214 85.6734 106.967L85.4262 106.72C85.179 106.72 85.179 106.472 84.9318 106.472C84.9318 106.472 84.7155 106.472 84.7155 106.256C84.4683 106.256 84.4683 106.009 84.2211 106.009H83.9739C83.7267 106.009 83.5104 105.762 83.2632 105.762H83.0161C82.7689 105.762 82.5526 105.762 82.3054 105.762C82.0582 105.762 82.0582 105.762 81.811 105.762C81.5638 105.762 81.5638 105.762 81.3475 105.762L50.3243 112.498C47.667 112.961 45.9984 115.619 46.7091 118.276C47.2035 120.439 49.1193 122.108 51.2822 122.108C51.5294 122.108 51.9929 122.108 52.2401 122.108L70.5326 118.029C55.1138 142.316 46.7091 170.682 46.7091 200.252C46.7091 230.565 55.361 259.889 71.954 284.886C72.9119 286.339 74.3642 287.049 76.0328 287.049C77.0215 287.049 77.9794 286.833 78.6901 286.339C80.8531 284.886 81.5638 282.013 80.1424 279.602C64.5072 256.057 56.3189 228.618 56.3189 200.252C56.3189 172.381 64.26 145.437 79.1845 122.108L82.7689 141.821C83.2632 144.232 85.179 145.684 87.5892 145.684C88.0836 145.684 88.2999 145.684 88.5471 145.684Z" fill="#1E6EF9"/>
</g>
<path d="M147.697 262.76C147.697 268.075 152.054 272.401 157.337 272.401H243.887C249.171 272.401 253.497 268.075 253.497 262.76V220.922C253.497 208.439 247.008 197.624 237.151 191.352C235.235 194.009 233.072 196.419 230.415 198.582C238.356 202.908 243.64 211.313 243.64 220.922L243.887 262.76H157.337V220.922C157.337 211.313 162.621 202.908 170.562 198.582C168.152 196.419 165.742 194.009 163.826 191.352C153.969 197.624 147.48 208.686 147.48 220.922V262.76H147.697Z" fill="#1E6EF9"/>
<path d="M164.537 164.191C164.537 184.152 180.667 200.25 200.597 200.25C220.558 200.25 236.688 184.152 236.688 164.191C236.688 144.23 220.558 128.131 200.597 128.131C180.667 128.131 164.537 144.23 164.537 164.191ZM200.597 137.741C215.274 137.741 227.047 149.513 227.047 164.191C227.047 178.868 215.274 190.641 200.597 190.641C185.95 190.641 174.147 178.868 174.147 164.191C174.147 149.513 185.95 137.741 200.597 137.741Z" fill="#1E6EF9"/>
<path d="M244.379 296.192C242.216 297.15 240.053 298.108 237.89 298.85C235.48 299.807 234.028 302.434 234.986 305.091C235.727 307.007 237.643 308.212 239.559 308.212C240.053 308.212 240.764 308.212 241.258 307.965C243.637 307.007 246.048 306.049 248.211 305.091C250.621 303.886 251.579 301.26 250.621 298.85C249.416 296.192 246.789 294.987 244.379 296.192Z" fill="#1E6EF9"/>
<path d="M220.085 303.886C217.922 304.381 215.511 304.597 213.101 304.844C210.444 305.091 208.528 307.501 208.775 310.128C209.023 312.538 211.186 314.485 213.596 314.485C213.812 314.485 214.059 314.485 214.059 314.485C216.469 314.238 219.127 313.743 221.506 313.28C224.163 312.785 225.863 310.375 225.368 307.749C225.121 305.091 222.711 303.423 220.085 303.886Z" fill="#1E6EF9"/>
<path d="M266.253 105.758C264.09 104.306 262.174 102.885 260.011 101.68C257.817 100.227 254.696 100.938 253.491 103.348C252.07 105.511 252.781 108.632 255.191 109.837C257.106 111.042 259.022 112.247 260.969 113.699C261.68 114.163 262.638 114.657 263.595 114.657C265.048 114.657 266.716 113.947 267.458 112.494C268.879 110.331 268.416 107.427 266.253 105.758Z" fill="#1E6EF9"/>
<path d="M266.005 282.968C264.089 284.421 262.39 285.873 260.474 287.047C258.311 288.499 257.817 291.62 259.269 293.783C260.227 295.235 261.679 295.946 263.131 295.946C264.089 295.946 265.047 295.73 265.758 294.988C267.921 293.567 269.868 292.115 271.783 290.415C273.946 288.746 274.194 285.873 272.494 283.679C271.042 281.516 267.921 281.3 266.005 282.968Z" fill="#1E6EF9"/>
<path d="M146.524 290.662C144.577 289.457 142.661 288.251 140.745 286.83C138.582 285.378 135.462 285.872 134.009 288.035C132.557 290.198 133.051 293.319 135.214 294.74C137.377 296.193 139.293 297.645 141.456 298.85C142.167 299.313 143.156 299.561 143.866 299.561C145.535 299.561 146.987 298.85 147.945 297.151C149.644 294.988 148.903 292.114 146.524 290.662Z" fill="#1E6EF9"/>
<path d="M135.678 105.512C133.515 106.965 131.599 108.417 129.683 110.086C127.52 111.785 127.273 114.659 128.942 116.822C129.93 118.027 131.352 118.737 132.804 118.737C133.762 118.737 134.967 118.49 135.678 117.78C137.624 116.327 139.293 114.906 141.209 113.701C143.372 112.249 143.866 109.128 142.414 106.965C140.745 104.555 137.841 103.844 135.678 105.512Z" fill="#1E6EF9"/>
<path d="M163.076 298.852C160.697 297.894 157.792 299.099 156.834 301.726C155.876 304.136 157.081 307.01 159.739 307.967C162.118 308.956 164.528 309.667 166.938 310.378C167.433 310.625 167.896 310.625 168.391 310.625C170.554 310.625 172.222 309.173 172.964 307.257C173.674 304.599 172.222 301.973 169.812 301.262C167.433 300.273 165.27 299.563 163.076 298.852Z" fill="#1E6EF9"/>
<path d="M187.863 304.844C185.205 304.597 182.826 306.296 182.579 308.954C182.332 311.58 184 313.99 186.658 314.238C189.068 314.485 191.725 314.701 194.104 314.948H194.352C197.009 314.948 198.925 313.032 199.172 310.375C199.419 307.749 197.225 305.586 194.599 305.339C192.436 305.339 190.026 305.091 187.863 304.844Z" fill="#1E6EF9"/>
<path d="M281.644 118.737C279.728 116.821 276.823 116.821 274.908 118.737C272.992 120.652 272.992 123.557 274.908 125.473C276.576 127.172 278.028 128.841 279.728 130.509C280.686 131.498 281.891 132.209 283.312 132.209C284.517 132.209 285.475 131.714 286.464 131.004C288.38 129.335 288.627 126.183 286.927 124.268C285.259 122.352 283.312 120.436 281.644 118.737Z" fill="#1E6EF9"/>
<path d="M180.421 96.6145C180.668 96.6145 180.885 96.6145 181.379 96.6145C183.542 96.151 185.952 95.9038 188.362 95.6566C190.989 95.4094 192.905 93.0301 192.688 90.3728C192.441 87.7154 190.031 85.7997 187.374 86.0469C184.994 86.294 182.337 86.7575 179.927 87.2519C177.3 87.7154 175.601 90.1256 176.095 92.783C176.312 95.1931 178.258 96.6145 180.421 96.6145Z" fill="#1E6EF9"/>
<path d="M238.355 101.897C238.849 102.145 239.56 102.145 240.054 102.145C241.97 102.145 243.886 100.939 244.596 99.0237C245.585 96.6135 244.38 93.7399 241.723 92.782C239.313 91.8241 236.902 91.0825 234.523 90.3718C231.866 89.6611 229.209 91.0825 228.498 93.4927C227.787 96.15 229.209 98.7765 231.619 99.5181C234.029 100.229 236.192 100.939 238.355 101.897Z" fill="#1E6EF9"/>
<path d="M106.602 262.542C107.56 262.542 108.27 262.295 109.012 261.801C111.175 260.379 111.886 257.475 110.681 255.065C109.475 253.149 108.27 250.986 107.313 249.07C106.107 246.66 103.234 245.702 100.824 247.154C98.4135 248.36 97.4556 251.233 98.9078 253.643C100.113 255.806 101.318 257.969 102.739 260.132C103.481 261.801 104.902 262.542 106.602 262.542Z" fill="#1E6EF9"/>
<path d="M160.201 92.5339C157.791 93.4918 155.381 94.4497 153.218 95.4076C150.839 96.6126 149.634 99.27 150.839 101.68C151.549 103.349 153.465 104.554 155.165 104.554C155.875 104.554 156.586 104.307 157.08 104.059C159.243 103.102 161.406 102.144 163.569 101.433C165.979 100.475 167.432 97.8177 166.443 95.1913C165.485 93.0283 162.611 91.576 160.201 92.5339Z" fill="#1E6EF9"/>
<path d="M298.7 140.398C297.279 138.235 294.374 137.493 292.211 138.698C290.048 140.15 289.338 143.024 290.543 145.187C291.748 147.103 292.953 149.266 293.911 151.213C294.869 152.881 296.537 153.839 298.237 153.839C298.947 153.839 299.689 153.623 300.4 153.375C302.81 152.17 303.768 149.266 302.316 146.887C301.358 144.94 300.153 142.561 298.7 140.398Z" fill="#1E6EF9"/>
<path d="M121.739 269.989C120.07 268.074 116.919 267.826 115.003 269.495C113.087 271.195 112.84 274.315 114.539 276.231C116.208 278.147 117.907 279.846 119.823 281.762C120.781 282.72 121.986 283.214 123.191 283.214C124.396 283.214 125.601 282.72 126.559 281.762C128.475 279.846 128.475 276.726 126.559 275.026C124.86 273.605 123.191 271.905 121.739 269.989Z" fill="#1E6EF9"/>
<path d="M283.804 264.925C282.351 266.871 280.93 268.54 279.478 270.239C277.778 272.155 277.778 275.276 279.941 276.976C280.93 277.686 282.104 278.15 283.093 278.15C284.514 278.15 285.719 277.686 286.677 276.481C288.377 274.565 290.045 272.65 291.498 270.703C293.166 268.54 292.703 265.666 290.54 263.967C288.377 262.545 285.472 262.762 283.804 264.925Z" fill="#1E6EF9"/>
<path d="M301.111 168.517C301.853 170.68 302.317 173.09 303.027 175.253C303.522 177.416 305.437 178.868 307.6 178.868C308.095 178.868 308.342 178.868 308.805 178.621C311.463 177.879 312.915 175.5 312.421 172.843C311.926 170.432 311.216 168.022 310.505 165.643C309.763 162.986 306.89 161.781 304.479 162.491C301.853 163.48 300.401 166.107 301.111 168.517Z" fill="#1E6EF9"/>
<path d="M213.606 95.6556C213.822 95.6556 214.069 95.6556 214.069 95.6556C216.48 95.6556 218.642 93.9871 218.89 91.3297C219.137 88.6724 217.437 86.2931 214.811 86.0459C212.401 85.7987 209.743 85.5515 207.333 85.3352C204.707 85.088 202.544 87.251 202.297 89.8774C202.049 92.5348 204.212 94.6978 206.87 94.945C209.033 95.1922 211.443 95.4085 213.606 95.6556Z" fill="#1E6EF9"/>
<path d="M89.05 172.38C88.3084 174.759 87.8449 177.169 87.3505 179.827C86.887 182.453 88.5556 184.863 91.213 185.358C91.4602 185.358 91.6765 185.358 92.1709 185.358C94.3338 185.358 96.4968 183.658 96.9603 181.495C97.4547 179.332 97.9491 176.922 98.4126 174.759C99.1542 172.133 97.4547 169.475 94.7973 169.012C92.4181 168.023 89.7607 169.722 89.05 172.38Z" fill="#1E6EF9"/>
<path d="M98.1554 159.618C98.8969 159.865 99.3604 160.112 100.102 160.112C102.018 160.112 103.686 159.154 104.428 157.208C105.386 155.045 106.344 153.129 107.549 150.966C108.754 148.556 107.796 145.682 105.633 144.477C103.223 143.272 100.318 144.23 99.1441 146.393C97.9391 148.556 96.734 150.966 95.7761 153.129C94.571 155.539 95.7761 158.413 98.1554 159.618Z" fill="#1E6EF9"/>
<path d="M90.9576 212.271C93.615 212.054 95.5308 209.86 95.5308 207.234C95.2836 204.824 95.2836 202.661 95.2836 200.251V199.787C95.2836 197.13 93.1206 194.967 90.4633 194.967C87.8368 194.967 85.6738 197.13 85.6738 199.787V200.251C85.6738 202.661 85.6738 205.318 85.921 207.697C86.1373 210.355 88.084 212.271 90.7105 212.271H90.9576Z" fill="#1E6EF9"/>
<path d="M96.9524 238.256C99.6098 237.515 100.815 234.641 100.104 232.231C99.3626 230.068 98.6519 227.905 98.1575 225.495C97.4468 222.868 95.0367 221.416 92.4102 221.91C89.7528 222.621 88.3006 225.031 88.795 227.658C89.2585 230.068 90 232.478 90.9579 234.888C91.6686 237.051 93.6153 238.256 95.5311 238.256C95.9946 238.503 96.4889 238.256 96.9524 238.256Z" fill="#1E6EF9"/>
<path d="M302.32 253.891C303.525 251.697 304.73 249.318 305.688 247.155C306.893 244.744 305.688 241.84 303.278 240.882C300.868 239.677 297.994 240.882 297.036 243.292C296.078 245.455 295.12 247.371 293.915 249.534C292.71 251.944 293.668 254.849 295.831 256.054C296.542 256.517 297.283 256.517 297.994 256.517C299.91 256.517 301.362 255.559 302.32 253.891Z" fill="#1E6EF9"/>
<path d="M307.603 231.766C309.766 231.766 311.712 230.314 312.176 228.151C312.917 225.741 313.381 223.331 313.875 220.704C314.339 218.047 312.67 215.637 310.013 215.173C307.386 214.679 304.976 216.378 304.482 219.005C304.018 221.168 303.524 223.578 303.029 225.741C302.319 228.398 304.018 231.025 306.645 231.519C306.645 231.519 307.139 231.766 307.603 231.766Z" fill="#1E6EF9"/>
<path d="M110.92 136.288C111.877 137.029 112.835 137.246 113.793 137.246C115.245 137.246 116.698 136.535 117.656 135.33C119.077 133.414 120.529 131.715 122.229 130.046C123.65 128.13 123.65 125.009 121.487 123.31C119.571 121.641 116.451 121.641 114.751 123.804C113.082 125.72 111.383 127.636 109.962 129.552C108.262 131.715 108.757 134.619 110.92 136.288Z" fill="#1E6EF9"/>
<path d="M315.539 200.25C315.539 197.84 315.539 195.461 315.291 193.051C315.075 190.393 312.912 188.478 310.255 188.478C307.597 188.725 305.682 190.888 305.682 193.514C305.929 195.677 305.929 198.087 305.929 200.25V200.497C305.929 203.155 308.092 205.318 310.718 205.318C313.376 205.318 315.539 202.908 315.539 200.25Z" fill="#1E6EF9"/>
</svg>
