<svg width="400" height="400" viewBox="0 0 400 400" fill="none" xmlns="http://www.w3.org/2000/svg">
<mask id="mask0_292_116" style="mask-type:luminance" maskUnits="userSpaceOnUse" x="146" y="83" width="214" height="127">
<path d="M146.254 83.0215H359.002V209.795H146.254V83.0215Z" fill="white"/>
</mask>
<g mask="url(#mask0_292_116)">
<path d="M308.41 135.156C328.164 166.382 355.07 169.601 356.225 169.711L357.353 159.394C356.418 159.284 334.106 156.395 317.186 129.599C296.773 97.3554 279.716 88.8543 237.87 90.1748C230.002 90.3949 222.134 91.0552 214.348 92.1557C203.013 87.8088 191.32 85.6354 179.188 85.6079C177.757 85.6079 176.519 86.1306 175.501 87.1211C174.511 88.139 173.988 89.377 173.988 90.8076V116.944C171.127 117.274 168.431 118.072 165.872 119.392C163.314 120.713 161.085 122.446 159.159 124.592C157.234 126.738 155.775 129.159 154.757 131.828C153.712 134.524 153.217 137.302 153.217 140.191C153.217 143.052 153.712 145.831 154.757 148.527C155.775 151.223 157.234 153.617 159.159 155.763C161.085 157.909 163.314 159.642 165.872 160.962C168.431 162.283 171.127 163.108 173.988 163.411V184.347C173.988 185.778 174.511 187.016 175.501 188.034C176.519 189.052 177.757 189.547 179.188 189.547H272.728C274.158 189.547 275.396 189.052 276.414 188.034C277.432 187.016 277.927 185.778 277.927 184.347C277.927 180.551 277.707 176.782 277.267 173.013L353.667 209.053L358.096 199.644L247.857 147.674C247.087 147.289 246.509 146.711 246.179 145.886C245.821 145.088 245.794 144.263 246.069 143.437C246.371 142.585 246.894 141.952 247.664 141.539C248.435 141.099 249.233 140.989 250.085 141.182L290.06 150.205L292.371 140.054L263.814 133.616C255.753 120.19 245.106 109.295 231.845 100.932C233.964 100.822 235.999 100.657 238.173 100.574C278.725 99.3087 291.27 108.085 308.41 135.156ZM249.343 130.7C246.674 130.7 244.198 131.387 241.914 132.818C239.658 134.276 237.953 136.202 236.825 138.623C236.054 140.274 235.614 142.034 235.532 143.878C235.449 145.693 235.697 147.482 236.33 149.215C236.935 150.921 237.87 152.489 239.108 153.837C240.346 155.185 241.777 156.258 243.428 157.056L265.877 167.62C266.62 171.444 267.143 175.296 267.39 179.148H184.388V158.376C184.388 156.946 183.892 155.708 182.874 154.69C181.856 153.672 180.618 153.177 179.188 153.177H176.602C174.868 153.177 173.218 152.846 171.622 152.186C170.026 151.526 168.623 150.59 167.413 149.352C166.202 148.142 165.267 146.739 164.607 145.143C163.946 143.548 163.616 141.897 163.616 140.191C163.616 138.458 163.946 136.807 164.607 135.211C165.267 133.616 166.202 132.213 167.413 131.002C168.623 129.792 170.026 128.829 171.622 128.168C173.218 127.508 174.868 127.178 176.602 127.178H179.188C180.618 127.178 181.856 126.683 182.874 125.665C183.892 124.647 184.388 123.436 184.388 121.978V96.1724C197.208 96.9427 209.286 100.327 220.62 106.379C231.955 112.404 241.529 120.52 249.343 130.7Z" fill="#1E6EF9"/>
</g>
<mask id="mask1_292_116" style="mask-type:luminance" maskUnits="userSpaceOnUse" x="195" y="38" width="22" height="24">
<path d="M195.555 38.8389H216.684V61.8937H195.555V38.8389Z" fill="white"/>
</mask>
<g mask="url(#mask1_292_116)">
<path d="M199.98 38.8389H210.352V59.6377H199.98V38.8389Z" fill="#1E6EF9"/>
</g>
<path d="M230.52 63.2952L245.211 48.604L252.584 55.9496L237.865 70.6409L230.52 63.2952Z" fill="#1E6EF9"/>
<path d="M157.775 55.9496L165.121 48.604L179.812 63.2952L172.467 70.6409L157.775 55.9496Z" fill="#1E6EF9"/>
<mask id="mask2_292_116" style="mask-type:luminance" maskUnits="userSpaceOnUse" x="40" y="118" width="184" height="244">
<path d="M40.6055 118.237H223.723V361.055H40.6055V118.237Z" fill="white"/>
</mask>
<g mask="url(#mask2_292_116)">
<path d="M132.409 361.056C134.802 361.056 137.168 360.809 139.507 360.341C141.845 359.873 144.129 359.186 146.329 358.278C148.53 357.37 150.621 356.242 152.602 354.921C154.583 353.573 156.426 352.088 158.132 350.382C159.81 348.704 161.323 346.86 162.644 344.88C163.964 342.899 165.092 340.808 166 338.607C166.908 336.378 167.623 334.123 168.091 331.784C168.559 329.418 168.779 327.08 168.779 324.686V290.847C176.537 287.353 183.635 282.841 190.101 277.311C196.538 271.754 202.068 265.426 206.69 258.273C211.285 251.147 214.806 243.499 217.2 235.328C219.593 227.185 220.776 218.849 220.749 210.347C220.749 208.917 220.253 207.679 219.235 206.661C218.217 205.643 217.007 205.148 215.549 205.148H137.608V189.549C137.608 188.118 137.086 186.908 136.095 185.89C135.077 184.872 133.839 184.349 132.409 184.349H127.209C125.833 184.349 124.513 184.101 123.22 183.579C121.954 183.028 120.826 182.286 119.863 181.323C118.873 180.332 118.13 179.204 117.607 177.939C117.085 176.673 116.809 175.353 116.809 173.977C116.809 172.574 117.085 171.253 117.607 169.988C118.13 168.722 118.873 167.594 119.863 166.604C120.826 165.641 121.954 164.898 123.22 164.348C124.513 163.825 125.833 163.578 127.209 163.578H132.409C133.839 163.578 135.077 163.055 136.095 162.037C137.086 161.019 137.608 159.809 137.608 158.378V127.18C137.608 125.749 137.086 124.539 136.095 123.521C135.077 122.503 133.839 121.98 132.409 121.98C130.978 121.98 129.575 122.035 128.117 122.09C123.192 122.338 118.323 122.998 113.536 124.043C108.721 125.089 104.044 126.547 99.4771 128.39C94.9101 130.233 90.5083 132.434 86.3265 134.993C82.1172 137.552 78.1555 140.468 74.4414 143.687C70.7549 146.933 67.3159 150.427 64.2071 154.251C61.0708 158.048 58.2921 162.064 55.8435 166.356C53.395 170.621 51.3041 175.05 49.5984 179.672C47.8927 184.294 46.5721 188.998 45.6642 193.84C44.7288 198.683 44.2336 203.552 44.1236 208.477C44.0135 213.401 44.3162 218.298 45.0315 223.168C45.7468 228.037 46.8472 232.797 48.3604 237.502C49.8735 242.178 51.7718 246.69 54.0278 251.065C56.3112 255.439 58.9248 259.593 61.8961 263.5C64.8399 267.434 68.1138 271.093 71.6903 274.477C75.2668 277.861 79.0909 280.942 83.1626 283.694C87.2619 286.417 91.5537 288.811 96.0381 290.847V324.686C96.0381 327.08 96.2582 329.418 96.7259 331.784C97.1936 334.123 97.8814 336.378 98.8168 338.607C99.7247 340.808 100.853 342.899 102.173 344.88C103.494 346.86 105.007 348.704 106.685 350.382C108.391 352.088 110.207 353.573 112.215 354.921C114.196 356.242 116.287 357.37 118.488 358.278C120.689 359.186 122.972 359.873 125.311 360.341C127.649 360.809 130.015 361.056 132.409 361.056ZM150.759 343.064C145.697 348.153 139.589 350.685 132.409 350.657C127.236 350.657 122.504 349.226 118.185 346.42C113.866 343.587 110.702 339.79 108.638 335.085H156.206C154.886 338.084 153.07 340.753 150.759 343.064ZM158.38 324.686H106.41V309.087H158.38V324.686ZM54.4955 208.202C54.633 203.387 55.2108 198.655 56.2562 193.951C57.2742 189.246 58.7048 184.679 60.5756 180.25C62.4188 175.82 64.6748 171.611 67.3159 167.594C69.957 163.578 72.9558 159.836 76.2847 156.37C79.6136 152.903 83.2177 149.767 87.1243 146.988C91.031 144.182 95.1852 141.761 99.5321 139.725C103.879 137.689 108.391 136.066 113.04 134.883C117.69 133.672 122.422 132.902 127.209 132.572V153.178C124.458 153.178 121.789 153.701 119.258 154.746C116.699 155.819 114.471 157.305 112.518 159.258C110.564 161.212 109.051 163.468 108.006 165.999C106.96 168.557 106.41 171.198 106.41 173.977C106.41 176.728 106.96 179.369 108.006 181.928C109.051 184.459 110.564 186.715 112.518 188.668C114.471 190.622 116.699 192.107 119.258 193.18C121.789 194.226 124.458 194.748 127.209 194.748V210.347C127.209 211.778 127.704 213.016 128.722 214.007C129.74 215.024 130.978 215.547 132.409 215.547H210.184C209.716 222.838 208.231 229.936 205.755 236.841C203.279 243.719 199.867 250.129 195.575 256.072C191.284 261.987 186.249 267.214 180.471 271.726C174.722 276.238 168.421 279.842 161.626 282.593C159.453 283.474 158.38 285.069 158.38 287.408V298.687H106.41V287.408C106.41 285.069 105.337 283.474 103.191 282.593C95.818 279.594 89.1052 275.578 82.9701 270.516C76.835 265.453 71.6077 259.621 67.2609 252.963C62.9141 246.333 59.6402 239.18 57.4667 231.559C55.2933 223.911 54.3029 216.125 54.4955 208.202Z" fill="#1E6EF9"/>
</g>
</svg>
