<svg width="400" height="400" viewBox="0 0 400 400" fill="none" xmlns="http://www.w3.org/2000/svg">
<mask id="mask0_292_115" style="mask-type:luminance" maskUnits="userSpaceOnUse" x="131" y="224" width="144" height="140">
<path d="M131.941 224.251H274.326V363.299H131.941V224.251Z" fill="white"/>
</mask>
<g mask="url(#mask0_292_115)">
<path d="M224.642 359.498L202.178 342.874C201.004 342.009 199.799 342.009 198.594 342.874L176.161 359.498C173.627 361.383 170.785 362.31 167.664 362.31C164.543 362.31 161.7 361.383 159.166 359.498C156.633 357.644 154.902 355.172 153.913 352.144C152.955 349.116 152.955 346.088 153.913 343.06L162.534 316.177C162.967 314.756 162.596 313.612 161.422 312.716L138.958 296.092C136.455 294.238 134.694 291.767 133.736 288.738C132.778 285.741 132.778 282.713 133.736 279.685C134.725 276.657 136.455 274.216 138.989 272.331C141.492 270.477 144.335 269.519 147.455 269.519H175.234C176.717 269.519 177.675 268.808 178.139 267.356L186.698 240.473C187.687 237.445 189.448 235.004 191.951 233.15C194.484 231.296 197.327 230.369 200.448 230.369C203.569 230.369 206.381 231.296 208.915 233.15C211.448 235.004 213.21 237.445 214.167 240.473L222.758 267.356C223.19 268.808 224.179 269.519 225.631 269.519H253.441C256.562 269.519 259.373 270.477 261.907 272.331C264.41 274.216 266.171 276.657 267.129 279.685C268.087 282.713 268.087 285.741 267.129 288.738C266.171 291.767 264.441 294.238 261.907 296.092L239.474 312.716C238.269 313.612 237.898 314.756 238.362 316.177L246.921 343.06C247.261 344.172 247.477 345.284 247.57 346.459C247.632 347.602 247.601 348.745 247.415 349.889C247.23 351.032 246.921 352.144 246.488 353.226C246.056 354.276 245.5 355.265 244.82 356.223C244.14 357.15 243.398 357.984 242.533 358.757C241.668 359.498 240.741 360.147 239.721 360.672C238.702 361.198 237.651 361.599 236.539 361.878C235.457 362.156 234.345 362.31 233.202 362.31C230.05 362.341 227.207 361.383 224.642 359.498ZM225.6 281.106C222.479 281.106 219.637 280.179 217.103 278.294C214.569 276.409 212.839 273.968 211.881 270.909L203.291 244.027C202.827 242.605 201.869 241.895 200.386 241.895C198.934 241.895 197.945 242.605 197.513 244.027L188.923 270.909C187.965 273.968 186.203 276.409 183.67 278.294C181.167 280.179 178.324 281.106 175.203 281.106H147.394C145.941 281.106 144.953 281.848 144.52 283.269C144.056 284.691 144.427 285.834 145.601 286.73L168.096 303.323C170.63 305.208 172.36 307.649 173.318 310.677C174.276 313.705 174.276 316.733 173.318 319.761L164.759 346.644C164.296 348.096 164.666 349.24 165.841 350.136C167.046 351.001 168.22 351.001 169.425 350.136L191.889 333.512C194.423 331.627 197.235 330.669 200.386 330.669C203.507 330.669 206.319 331.627 208.853 333.512L231.317 350.136C232.522 351.001 233.696 351.001 234.901 350.136C236.075 349.24 236.446 348.096 235.983 346.644L227.423 319.761C226.465 316.733 226.465 313.705 227.423 310.677C228.381 307.649 230.143 305.208 232.645 303.323L255.14 286.73C256.314 285.834 256.685 284.691 256.222 283.269C255.758 281.848 254.8 281.106 253.348 281.106H225.6Z" fill="#1E6EF9"/>
</g>
<mask id="mask1_292_115" style="mask-type:luminance" maskUnits="userSpaceOnUse" x="58" y="184" width="122" height="120">
<path d="M58 184.7H179.404V303.354H58V184.7Z" fill="white"/>
</mask>
<g mask="url(#mask1_292_115)">
<path d="M81.3034 297.545C79.0168 295.877 77.441 293.683 76.5758 290.964C75.7106 288.245 75.7106 285.525 76.6067 282.806L83.7136 260.497C83.9608 259.755 83.7754 259.168 83.1574 258.705L64.4941 244.831C62.2384 243.162 60.6625 240.968 59.7973 238.249C58.9321 235.53 58.9321 232.811 59.7973 230.092C60.6625 227.373 62.2384 225.179 64.4941 223.479C66.7806 221.811 69.3144 220.976 72.1262 220.976H95.1773C95.9498 220.976 96.4442 220.606 96.6605 219.833L103.767 197.524C104.633 194.804 106.208 192.611 108.495 190.911C110.751 189.242 113.284 188.408 116.096 188.408C118.908 188.408 121.442 189.242 123.728 190.911C125.984 192.611 127.56 194.804 128.425 197.524L135.563 219.833C135.779 220.606 136.274 220.976 137.015 220.976H160.066C162.878 220.976 165.412 221.811 167.699 223.479C169.954 225.179 171.53 227.373 172.395 230.092C173.26 232.811 173.26 235.53 172.395 238.249C171.53 240.968 169.954 243.162 167.699 244.831L149.035 258.643C148.417 259.075 148.232 259.663 148.479 260.404L152.65 273.536C152.929 274.402 153.021 275.298 152.867 276.225C152.743 277.121 152.403 277.955 151.878 278.697C151.353 279.438 150.704 280.025 149.9 280.458C149.097 280.891 148.263 281.107 147.367 281.138C145.914 281.169 144.987 281.879 144.555 283.301C144.122 284.691 144.493 285.834 145.636 286.7L148.973 289.141C150.858 290.531 151.631 292.385 151.291 294.703C150.951 297.02 149.684 298.565 147.49 299.338C143.226 300.852 139.302 300.265 135.656 297.545L117.023 283.671C116.405 283.239 115.787 283.239 115.169 283.671L96.5369 297.545C94.2812 299.245 91.7474 300.11 88.9047 300.11C86.0928 300.11 83.5591 299.245 81.3034 297.545ZM123.698 274.34L133.276 281.416C133.369 280.891 133.493 280.365 133.647 279.871C134.729 276.225 136.861 273.444 140.043 271.497L137.633 263.958C136.768 261.238 136.768 258.519 137.633 255.8C138.498 253.112 140.074 250.918 142.33 249.218L160.993 235.437C161.611 234.974 161.797 234.387 161.549 233.645C161.333 232.934 160.839 232.564 160.066 232.564H137.015C134.234 232.564 131.701 231.76 129.414 230.092C127.158 228.423 125.582 226.229 124.717 223.51L117.579 201.17C117.363 200.459 116.869 200.088 116.096 200.088C115.355 200.088 114.86 200.459 114.613 201.17L107.475 223.51C106.61 226.229 105.034 228.423 102.779 230.092C100.492 231.76 97.9583 232.564 95.1773 232.564H72.1262C71.3847 232.564 70.8903 232.934 70.6431 233.645C70.3959 234.387 70.5813 234.974 71.1993 235.437L89.8626 249.218C92.1182 250.918 93.6941 253.112 94.5593 255.8C95.4245 258.519 95.4245 261.238 94.5593 263.958L87.4215 286.329C87.2052 287.07 87.3906 287.658 88.0086 288.121C88.5957 288.554 89.2137 288.554 89.8317 288.09L108.495 274.309C110.751 272.609 113.284 271.775 116.096 271.775C118.908 271.775 121.442 272.609 123.698 274.309V274.34Z" fill="#1E6EF9"/>
</g>
<mask id="mask2_292_115" style="mask-type:luminance" maskUnits="userSpaceOnUse" x="226" y="184" width="117" height="120">
<path d="M226.863 184.701H342.767V303.355H226.863V184.701Z" fill="white"/>
</mask>
<g mask="url(#mask2_292_115)">
<path d="M304.271 297.547L285.607 283.735C284.989 283.271 284.402 283.271 283.784 283.735L265.121 297.547C261.537 300.266 257.612 300.884 253.348 299.37C251.185 298.597 249.918 297.052 249.578 294.735C249.238 292.417 250.011 290.563 251.865 289.173L255.14 286.763C256.314 285.898 256.716 284.754 256.284 283.333C255.851 281.912 254.893 281.201 253.441 281.17C252.545 281.139 251.68 280.923 250.876 280.49C250.104 280.058 249.424 279.47 248.899 278.729C248.373 277.987 248.064 277.153 247.91 276.257C247.786 275.33 247.848 274.434 248.126 273.569L252.328 260.436C252.545 259.695 252.359 259.108 251.741 258.675L233.109 244.863C230.822 243.194 229.277 241.001 228.381 238.281C227.516 235.562 227.516 232.843 228.381 230.124C229.246 227.405 230.822 225.211 233.109 223.511C235.365 221.843 237.898 221.009 240.71 221.009H263.761C264.534 221.009 265.028 220.638 265.244 219.865L272.382 197.556C273.247 194.837 274.823 192.643 277.079 190.943C279.366 189.275 281.899 188.44 284.711 188.44C287.492 188.44 290.026 189.275 292.312 190.943C294.568 192.643 296.144 194.837 297.009 197.556L304.147 219.865C304.363 220.638 304.858 221.009 305.63 221.009H328.681C331.493 221.009 334.027 221.843 336.282 223.511C338.569 225.211 340.145 227.405 341.01 230.124C341.875 232.843 341.875 235.562 341.01 238.281C340.145 241.001 338.569 243.194 336.282 244.863L317.65 258.675C317.032 259.108 316.847 259.695 317.063 260.436L324.201 282.777C325.097 285.496 325.097 288.215 324.232 290.934C323.366 293.653 321.791 295.816 319.504 297.485C317.217 299.215 314.684 300.05 311.872 300.05C309.06 300.05 306.526 299.215 304.271 297.485V297.547ZM305.63 232.627C302.818 232.627 300.285 231.792 297.998 230.124C295.742 228.424 294.166 226.231 293.301 223.511L286.194 201.171C285.947 200.46 285.453 200.09 284.711 200.09C283.939 200.09 283.444 200.46 283.228 201.171L276.09 223.511C275.225 226.231 273.649 228.424 271.393 230.124C269.107 231.792 266.573 232.627 263.761 232.627H240.71C239.969 232.627 239.474 232.998 239.227 233.708C239.011 234.45 239.196 235.037 239.783 235.5L258.447 249.282C260.733 250.95 262.278 253.144 263.143 255.863C264.039 258.582 264.039 261.302 263.143 264.021L260.764 271.498C263.947 273.414 266.048 276.195 267.129 279.779C267.284 280.274 267.407 280.799 267.531 281.324L277.079 274.248C279.366 272.58 281.899 271.715 284.711 271.715C287.492 271.715 290.026 272.58 292.312 274.248L310.976 288.061C311.563 288.524 312.181 288.524 312.799 288.061C313.417 287.597 313.602 287.01 313.355 286.268L306.248 263.959C305.383 261.24 305.383 258.521 306.248 255.801C307.113 253.113 308.658 250.919 310.945 249.22L329.608 235.439C330.195 234.975 330.381 234.388 330.164 233.646C329.917 232.936 329.423 232.565 328.681 232.565L305.63 232.627Z" fill="#1E6EF9"/>
</g>
<path d="M94.8959 177.532C93.4745 177.501 92.2385 177.037 91.1571 176.11C90.1065 175.152 89.4576 173.978 89.2413 172.557C88.4997 167.149 88.1289 161.711 88.1289 156.242C88.1289 151.607 88.4379 147.034 88.9941 142.461C89.5503 137.857 90.3846 133.345 91.4661 128.865C92.5784 124.415 93.938 120.028 95.5757 115.702C97.2134 111.407 99.0982 107.235 101.261 103.157C103.393 99.1087 105.773 95.1845 108.399 91.4147C110.995 87.645 113.837 84.0606 116.896 80.6617C119.955 77.2627 123.2 74.0492 126.63 71.0519C130.06 68.0238 133.675 65.2737 137.445 62.7091C141.214 60.1444 145.139 57.8578 149.186 55.7876C153.234 53.7482 157.406 51.9251 161.67 50.411C165.934 48.8661 170.291 47.5992 174.709 46.6104C179.128 45.6216 183.608 44.9109 188.12 44.4783C192.631 44.0457 197.142 43.8912 201.654 44.0457C206.196 44.1693 210.707 44.6019 215.157 45.2817C219.637 45.9924 224.056 46.9812 228.413 48.2172C232.77 49.484 237.034 50.9981 241.236 52.7903C242.657 53.4083 243.677 54.4898 244.295 55.973C244.882 57.4561 244.851 58.9393 244.233 60.3916C243.646 61.8748 242.596 62.9253 241.143 63.5124C239.691 64.1304 238.239 64.0995 236.787 63.4815C233.017 61.8748 229.216 60.5152 225.292 59.4028C221.399 58.2595 217.443 57.3943 213.427 56.7454C209.41 56.1275 205.362 55.7567 201.314 55.6331C197.235 55.5095 193.187 55.6331 189.139 56.0348C185.123 56.4055 181.106 57.0544 177.15 57.9505C173.164 58.8157 169.271 59.959 165.44 61.3495C161.608 62.7091 157.869 64.3158 154.254 66.1698C150.608 68.0238 147.116 70.094 143.717 72.3806C140.349 74.6672 137.105 77.1391 134.015 79.8274C130.925 82.5466 128.02 85.4202 125.301 88.4484C122.551 91.5074 120.017 94.721 117.669 98.1199C115.321 101.488 113.188 105.011 111.273 108.626C109.357 112.272 107.657 116.042 106.174 119.904C104.722 123.736 103.486 127.691 102.497 131.677C101.508 135.694 100.736 139.772 100.242 143.851C99.7471 147.961 99.4999 152.101 99.4999 156.211C99.4999 161.124 99.8398 166.006 100.551 170.857C100.767 172.464 100.396 173.886 99.469 175.183C98.5112 176.45 97.2752 177.223 95.6993 177.439C95.4521 177.501 95.174 177.501 94.8959 177.532Z" fill="#1E6EF9"/>
<path d="M301.763 177.532C301.485 177.532 301.207 177.501 300.929 177.439C299.353 177.223 298.117 176.45 297.159 175.183C296.232 173.886 295.861 172.464 296.108 170.888C296.788 166.006 297.128 161.124 297.128 156.242C297.159 146.014 295.676 136.034 292.679 126.3C292.153 124.755 292.246 123.241 292.957 121.758C293.698 120.275 294.842 119.286 296.387 118.823C297.932 118.328 299.415 118.483 300.836 119.286C302.257 120.089 303.154 121.295 303.555 122.901C306.892 133.778 308.53 144.902 308.53 156.304C308.53 161.742 308.159 167.18 307.418 172.619C307.201 174.009 306.553 175.214 305.471 176.141C304.39 177.068 303.154 177.532 301.763 177.532Z" fill="#1E6EF9"/>
<mask id="mask3_292_115" style="mask-type:luminance" maskUnits="userSpaceOnUse" x="116" y="37" width="206" height="180">
<path d="M116.123 37H321.79V216.341H116.123V37Z" fill="white"/>
</mask>
<g mask="url(#mask3_292_115)">
<path d="M198.322 210.5C192.699 210.531 187.816 208.585 183.645 204.691L125.338 149.721C123.205 147.743 121.537 145.426 120.301 142.769C119.096 140.111 118.447 137.33 118.323 134.395C118.2 131.459 118.632 128.617 119.621 125.866C120.61 123.116 122.093 120.675 124.04 118.512C125.986 116.38 128.273 114.681 130.899 113.445C133.495 112.24 136.245 111.56 139.119 111.467C142.023 111.344 144.804 111.807 147.492 112.858C150.181 113.877 152.591 115.392 154.692 117.4L195.665 155.994L277.827 47.9378C279.619 45.6822 281.751 43.8591 284.223 42.4686C286.695 41.0782 289.352 40.213 292.164 39.8731C294.976 39.5332 297.757 39.7495 300.476 40.522C303.195 41.2944 305.698 42.5613 307.923 44.3226C310.179 46.0839 312.002 48.2159 313.423 50.7188C314.844 53.2217 315.74 55.9099 316.111 58.7527C316.513 61.6263 316.328 64.4382 315.648 67.2192C314.937 70.031 313.732 72.5957 312.032 74.8822L215.41 201.972C211.547 207.07 206.418 209.882 200.114 210.438C199.527 210.5 198.909 210.5 198.322 210.5ZM140.015 123.178H139.613C137.512 123.24 135.627 123.889 133.958 125.156C132.259 126.392 131.054 127.999 130.343 129.976C129.633 131.985 129.509 133.993 130.003 136.063C130.498 138.134 131.517 139.864 133.062 141.285L191.432 196.132C193.625 198.202 196.221 199.129 199.218 198.882C202.216 198.604 204.626 197.275 206.48 194.865L303.072 67.7753C303.937 66.6939 304.555 65.4579 304.926 64.1292C305.296 62.8005 305.42 61.41 305.235 60.0505C305.08 58.66 304.648 57.3622 303.999 56.1571C303.319 54.9211 302.423 53.9015 301.341 53.0363C300.26 52.202 299.055 51.584 297.726 51.2132C296.428 50.8733 295.069 50.7806 293.709 50.966C292.349 51.1514 291.083 51.584 289.908 52.2947C288.734 53.0054 287.745 53.9015 286.911 55.0138L200.949 168.106C199.898 169.466 198.569 170.207 196.901 170.331C195.232 170.485 193.78 169.96 192.575 168.817L146.967 125.897C144.99 124.074 142.672 123.147 140.015 123.178Z" fill="#1E6EF9"/>
</g>
</svg>
