<svg width="277" height="75" viewBox="0 0 277 75" fill="none" xmlns="http://www.w3.org/2000/svg">
<path fill-rule="evenodd" clip-rule="evenodd" d="M24.5745 49.5941V24.8119H43.0327V29.3331H29.1916V35.0617H42.5413V39.4116H29.1916V44.9995H43.0327V49.5941H24.5745ZM55.0874 49.4249C55.1078 49.2352 55.1078 49.0048 55.1078 48.8539V26.3598C55.1078 26.0008 55.1139 25.3666 55.0649 24.8853C54.812 24.6997 54.5102 24.5142 54.3083 24.3918C54.086 24.2511 53.8617 24.1104 53.6333 23.9819L34.598 12.951C34.4532 12.8674 33.9882 12.5962 33.8047 12.5737C33.6252 12.5962 33.1602 12.8674 33.0093 12.951L13.9801 23.9819L13.9087 24.0206C13.5783 24.2103 12.9686 24.5692 12.5505 24.8792C12.5097 25.2769 12.5056 25.7704 12.5056 26.062C12.4995 26.1579 12.4995 26.2598 12.4995 26.3598V48.8539C12.4995 49.0048 12.5056 49.2352 12.5219 49.4249C12.7116 49.588 12.9808 49.7675 13.148 49.8756C13.3601 50.0204 13.5783 50.155 13.8027 50.2834L32.5178 61.1247L32.5851 61.1634C32.8258 61.3041 33.0725 61.4326 33.3234 61.555C33.458 61.6223 33.6374 61.714 33.8047 61.7813C34.0902 61.6692 34.4471 61.4775 34.6551 61.3714C34.806 61.2919 34.9508 61.2144 35.0894 61.1287L53.8005 50.2896L54.137 50.0877C54.3715 49.9429 54.8243 49.6553 55.0874 49.4249Z" fill="white"/>
<mask id="mask0_194_398" style="mask-type:luminance" maskUnits="userSpaceOnUse" x="0" y="6" width="33" height="30">
<path d="M0 6.22095H32.0995V35.9792H0V6.22095Z" fill="white"/>
</mask>
<g mask="url(#mask0_194_398)">
<path fill-rule="evenodd" clip-rule="evenodd" d="M0 35.6002C0.116243 29.5535 11.039 23.2132 12.9519 22.2363C12.9805 22.2241 13.007 22.2078 13.0294 22.1976L31.8751 11.2727C27.9392 8.62973 22.1882 5.44833 18.76 6.68826L7.77606 13.0572C1.83338 16.5016 0 19.6667 0 26.3823V35.6002Z" fill="white"/>
</g>
<path fill-rule="evenodd" clip-rule="evenodd" d="M36.9962 12.0087L54.5836 22.1974C54.7508 22.2932 55.02 22.4502 55.3157 22.6399C55.7684 17.8597 55.7786 11.4459 53.1193 9.16384L40.8975 2.0832C36.1131 -0.6944 31.5001 -0.6944 26.7158 2.0832L18.7603 6.68806C24.0157 3.94513 36.9126 11.9516 36.9962 12.0087ZM56.6515 23.5882L56.68 23.6168C56.6678 23.6045 56.6637 23.5984 56.6515 23.5882ZM56.68 23.6168C56.6902 23.6208 56.6963 23.6331 56.7086 23.6392C56.6963 23.6331 56.6902 23.6229 56.68 23.6168ZM56.8534 23.7962C56.8574 23.8003 56.8636 23.8064 56.8697 23.8125C56.8636 23.8064 56.8595 23.8023 56.8534 23.7962Z" fill="white"/>
<mask id="mask1_194_398" style="mask-type:luminance" maskUnits="userSpaceOnUse" x="52" y="8" width="16" height="45">
<path d="M52.9824 8.8313H67.623V52.1635H52.9824V8.8313Z" fill="white"/>
</mask>
<g mask="url(#mask1_194_398)">
<path fill-rule="evenodd" clip-rule="evenodd" d="M53.1191 9.16357C57.6465 12.0799 57.2488 25.5131 57.0979 27.6605V48.3253C61.3928 46.2329 66.8868 42.972 67.6149 39.7519V26.3818C67.6149 19.6663 65.7815 16.5012 59.8388 13.0567L53.1191 9.16357ZM56.5004 50.7827C56.4841 50.795 56.4718 50.8113 56.4555 50.8215L56.5004 50.7827Z" fill="white"/>
</g>
<mask id="mask2_194_398" style="mask-type:luminance" maskUnits="userSpaceOnUse" x="35" y="39" width="33" height="29">
<path d="M35.2319 39.6338H67.623V67.8258H35.2319V39.6338Z" fill="white"/>
</mask>
<g mask="url(#mask2_194_398)">
<path fill-rule="evenodd" clip-rule="evenodd" d="M67.615 39.752C67.2561 44.0897 58.7194 49.6551 55.1138 51.7923C54.9792 51.8718 54.8568 51.9453 54.7569 52.0064L36.1356 62.7967C36.0173 62.864 35.8398 62.9639 35.6318 63.0761C39.7513 65.6008 45.8184 68.7047 49.0202 67.5137L60.0123 61.1407C64.9415 58.2856 67.615 54.7657 67.615 48.7639V39.752Z" fill="white"/>
</g>
<path fill-rule="evenodd" clip-rule="evenodd" d="M49.0197 67.5136C45.2306 69.4551 36.2411 65.2867 32.4051 63.2901C32.0645 63.127 31.7525 62.9536 31.5506 62.8353C31.5221 62.8231 31.4996 62.8068 31.4772 62.7966L12.8559 52.0064C12.656 51.8881 12.3807 51.727 12.0972 51.5353C11.7995 56.3033 12.0625 63.3003 15.5458 65.7475L26.2238 71.9349C31.7362 75.1286 35.8781 75.1286 41.3905 71.9349L49.0197 67.5136ZM10.5147 47.3036C10.5086 47.2812 10.5086 47.2771 10.5024 47.2812C10.5086 47.2812 10.5086 47.2873 10.5147 47.3036Z" fill="white"/>
<mask id="mask3_194_398" style="mask-type:luminance" maskUnits="userSpaceOnUse" x="0" y="25" width="16" height="41">
<path d="M0 25.5378H15.3931V65.7376H0V25.5378Z" fill="white"/>
</mask>
<g mask="url(#mask3_194_398)">
<path fill-rule="evenodd" clip-rule="evenodd" d="M15.2381 65.5724C9.55234 61.9424 10.4354 46.5636 10.5149 47.3039V26.3821C10.5149 26.2924 10.5149 26.1802 10.5149 26.0579C6.27102 28.1054 0.524114 31.6498 0 35.7917V48.764C0 54.7679 2.67156 58.2858 7.5966 61.1409L15.2381 65.5724Z" fill="white"/>
</g>
<path d="M103.237 26.1762C100.45 30.7309 98.309 32.8719 93.9239 32.8719H89.4357V21.7911H92.2912C96.5069 21.7911 98.1052 22.7093 98.9204 25.8029V17.2022C98.1052 20.3301 96.5069 21.2483 92.2912 21.2483H89.4357V10.1675H93.72C98.1052 10.1675 99.431 11.8666 102.014 15.6725L102.149 15.606L100.892 9.62256H82.1973V9.79204C83.5896 9.96367 84.7803 10.337 84.7803 11.5598V30.7995C84.7803 32.0224 83.5896 32.7368 82.1973 33.2474V33.4169H100.212L101.368 34.1656L101.572 33.4169L103.372 26.2449L103.237 26.1762Z" fill="white"/>
<path d="M129.773 33.4169H135.619C134.6 32.7368 134.293 32.091 134.293 30.2567V22.9131C134.293 17.7814 131.506 16.728 129.466 16.728C126.475 16.728 123.927 19.0043 122.601 20.0233C121.751 17.3738 119.711 16.728 118.147 16.728C115.429 16.728 113.116 18.5623 111.655 19.7187V19.2767L111.825 16.7602L105.264 17.2708V17.4081C105.979 17.4746 106.862 17.7128 107.339 18.0195V31.072L107.135 33.4169H112.981C111.962 32.7368 111.655 32.091 111.655 30.2567V20.4996C112.912 19.5492 114.376 18.2899 116.04 18.2899C117.57 18.2899 118.658 19.2081 118.658 22.9818V31.072L118.454 33.4169H124.3C123.281 32.7368 122.974 32.091 122.974 30.2567V22.9131C122.974 22.0636 122.906 21.317 122.77 20.7034C123.993 19.7187 125.592 18.2899 127.359 18.2899C128.889 18.2899 129.977 19.2081 129.977 22.9818V31.072L129.773 33.4169Z" fill="white"/>
<path d="M149.017 16.7279C147.283 16.7279 145.857 17.1012 144.769 17.644V8.33092L144.938 6.80127L137.393 10.3368V10.5406C139.568 9.89489 140.452 9.72541 140.452 11.0856V29.4049C140.452 31.6146 140.043 32.1595 138.82 32.4642V32.4985C141.776 33.3824 144.735 33.6549 146.569 33.6549C154.116 33.6549 157.753 29.2697 157.753 24.58C157.753 19.991 154.354 16.7279 149.017 16.7279ZM148.54 32.9748C147.011 32.9748 145.788 32.4642 144.769 31.5803V18.2575C145.481 17.8156 146.333 17.5431 147.318 17.5431C151.261 17.5431 153.367 22.0634 153.367 26.721C153.367 30.6964 151.906 32.9748 148.54 32.9748Z" fill="white"/>
<path d="M171.501 16.7603C169.087 16.7603 167.251 18.1891 166.47 20.3645H166.028V19.2768L166.197 16.7603L159.637 17.2709V17.4082C160.351 17.4747 161.235 17.7128 161.711 18.0196V31.072L161.542 33.4169H167.354C166.335 32.7368 166.028 32.0911 166.028 30.2568V23.5246C166.3 21.1797 167.15 19.1416 168.714 19.1416C169.971 19.1416 170.617 20.7721 169.836 22.8123H169.971L173.369 17.17C172.723 16.8632 172.181 16.7603 171.501 16.7603Z" fill="white"/>
<path d="M179.37 14.2456C180.762 14.2456 181.85 13.1579 181.85 11.7312C181.85 10.3367 180.762 9.24902 179.37 9.24902C177.975 9.24902 176.887 10.3367 176.887 11.7312C176.887 13.1579 177.975 14.2456 179.37 14.2456ZM177.16 33.4166H183.006C181.987 32.7365 181.68 32.0908 181.68 30.2565V19.2765L181.85 16.76L175.289 17.2706V17.4079C176.003 17.4744 176.887 17.7125 177.364 18.0193V31.0717L177.16 33.4166Z" fill="white"/>
<path d="M193.804 16.728C188.331 16.728 184.763 20.1949 184.763 25.1915C184.763 30.2889 188.331 33.655 193.804 33.655C199.277 33.655 202.847 30.1881 202.847 25.1915C202.847 20.092 199.277 16.728 193.804 16.728ZM195.13 33.0779C191.051 33.0779 188.91 27.1288 188.91 22.6085C188.91 19.3111 190.032 17.3051 192.478 17.3051C196.591 17.3051 198.7 23.2542 198.7 27.8089C198.7 31.0376 197.577 33.0779 195.13 33.0779Z" fill="white"/>
<path d="M221.904 30.6299V8.33092L222.074 6.80127L214.528 10.3368V10.5406C216.704 9.89489 217.588 9.72541 217.588 11.0856V16.8974C216.772 16.7944 215.989 16.7279 215.208 16.7279C208.002 16.7279 204.535 20.9414 204.535 25.9036C204.535 30.6299 207.764 33.6549 212.726 33.6549C214.324 33.6549 215.685 33.3138 216.772 32.7366C216.772 32.771 216.738 32.771 216.738 32.771L223.23 33.8244V33.7235C222.211 33.0434 221.904 32.4642 221.904 30.6299ZM208.852 23.9342C208.852 19.991 210.482 17.3737 213.679 17.3737C215.309 17.3737 216.534 18.0537 217.588 19.2079V30.1879C217.588 30.6964 217.553 31.0718 217.519 31.4108C216.839 32.1595 215.989 32.5672 214.867 32.5672C211.435 32.5672 208.852 28.8621 208.852 23.9342Z" fill="white"/>
<path d="M241.48 30.0851C240.427 31.4796 238.08 31.9902 236.449 31.9902C232.371 31.9902 229.616 28.7936 229.548 23.9665H238.522C242.873 23.9665 242.261 16.728 234.92 16.728C229.854 16.728 225.13 19.9568 225.13 25.4296C225.13 30.2889 228.835 33.655 234.274 33.655C237.876 33.655 240.631 32.1253 241.65 30.2224L241.48 30.0851ZM233.798 17.2708C237.741 17.2708 238.691 23.2886 236.381 23.3207L229.548 23.3894C229.685 19.5835 231.487 17.2708 233.798 17.2708Z" fill="white"/>
<path d="M255.118 16.7603C252.705 16.7603 250.868 18.1891 250.087 20.3645H249.645V19.2768L249.815 16.7603L243.254 17.2709V17.4082C243.969 17.4747 244.853 17.7128 245.329 18.0196V31.072L245.159 33.4169H250.971C249.952 32.7368 249.645 32.0911 249.645 30.2568V23.5246C249.918 21.1797 250.767 19.1416 252.331 19.1416C253.589 19.1416 254.234 20.7721 253.453 22.8123H253.589L256.987 17.17C256.341 16.8632 255.798 16.7603 255.118 16.7603Z" fill="white"/>
<path d="M271.722 16.9319V17.067C272.947 17.4747 274.373 18.0861 273.15 21.0102L269.207 30.3233L265.129 21.0102C263.835 18.0861 265.195 17.2709 266.894 17.067V16.9319H258.907L260.164 19.2424L267.236 34.9122L267.167 35.0817C266.045 37.6991 263.769 38.7203 260.947 38.7203L262.239 40.2156C265.74 40.2156 266.759 37.7334 267.813 35.2533L273.796 21.0446C275.053 18.0539 275.869 17.4747 276.956 17.067V16.9319H271.722Z" fill="white"/>
<path d="M89.2684 49.6584C90.4698 49.6584 91.4481 49.7786 92.2033 50.0189C92.9627 50.2549 93.5699 50.4737 94.0225 50.6796C94.3422 50.8127 94.5803 50.9113 94.7348 50.98C94.8936 51.0486 95.0309 51.083 95.1467 51.083C95.3291 51.083 95.475 51.0486 95.5844 50.98C95.6981 50.9113 95.8118 50.8127 95.9276 50.6796L96.2022 50.8084L93.6879 55.0305L93.2073 54.8245C93.2073 54.7794 93.2116 54.6936 93.2245 54.5671C93.2352 54.4426 93.2416 54.3332 93.2416 54.241C93.2416 54.0414 93.1322 53.8119 92.9155 53.5544C92.7031 53.2927 92.3835 53.0567 91.9544 52.8508C91.4953 52.6233 91.0126 52.4646 90.5041 52.3788C89.9935 52.2887 89.4679 52.2415 88.9251 52.2415C88.0434 52.2415 87.3676 52.4281 86.8999 52.7993C86.4365 53.1726 86.2048 53.6875 86.2048 54.3439C86.2048 54.9575 86.5095 55.4338 87.123 55.777C87.7345 56.116 88.7878 56.4443 90.281 56.7639C91.1907 56.942 92.0445 57.1565 92.8469 57.4075C93.6535 57.6542 94.3615 57.9825 94.9751 58.3944C95.5865 58.802 96.0671 59.3169 96.4168 59.9391C96.7708 60.5634 96.9488 61.3507 96.9488 62.299C96.9488 63.0262 96.7879 63.7235 96.4683 64.3928C96.1529 65.0622 95.6723 65.6629 95.0266 66.195C94.3787 66.727 93.5677 67.1539 92.5894 67.4736C91.6154 67.7868 90.487 67.9456 89.1998 67.9456C88.2429 67.9456 87.3569 67.8383 86.5395 67.6281C85.7264 67.4114 84.9455 67.1303 84.1968 66.7871C83.699 66.5597 83.3493 66.4438 83.1498 66.4438C83.034 66.4438 82.9439 66.4781 82.8752 66.5468C82.8066 66.6155 82.6907 66.742 82.5319 66.9244L82.1973 66.7184L84.2311 62.5049L84.7116 62.7109C84.688 62.7795 84.6709 62.8375 84.6602 62.8825C84.6473 62.9233 84.643 62.9769 84.643 63.0456C84.643 63.3674 84.7932 63.642 85.0978 63.8694C85.4067 64.0925 85.7629 64.2963 86.1705 64.4787C86.6897 64.6803 87.2282 64.8305 87.7838 64.9335C88.3373 65.0365 88.8758 65.0879 89.3971 65.0879C90.6886 65.0879 91.7055 64.8906 92.4436 64.4958C93.1816 64.0968 93.5506 63.4103 93.5506 62.4363C93.5506 61.8012 93.2438 61.2992 92.6323 60.9259C92.0188 60.5483 90.9418 60.2029 89.3971 59.8876C88.5604 59.7052 87.7452 59.5078 86.9514 59.2954C86.1619 59.0788 85.4604 58.7849 84.8489 58.4116C84.2354 58.034 83.7419 57.562 83.3643 56.9956C82.9911 56.4292 82.8066 55.7062 82.8066 54.8245C82.8066 54.1208 82.9353 53.4579 83.1927 52.8336C83.4545 52.2114 83.8535 51.6622 84.3855 51.186C84.9176 50.7118 85.5891 50.3407 86.4022 50.0704C87.2196 49.7958 88.1743 49.6584 89.2684 49.6584Z" fill="white"/>
<path d="M120.917 52.1729H121.398C121.528 52.5805 121.822 52.7821 122.281 52.7821H131.249C131.706 52.7821 132 52.5805 132.133 52.1729H132.614V55.8457H132.133C132.017 55.3888 131.712 55.1592 131.215 55.1592H128.263V66.3838C128.263 66.6541 128.31 66.8686 128.409 67.0274C128.512 67.1883 128.619 67.2677 128.735 67.2677V67.7397H124.727V67.2677C125.088 67.2677 125.268 66.9738 125.268 66.3838V55.1592H122.281C121.822 55.1592 121.528 55.3652 121.398 55.7771H120.917V52.1729Z" fill="white"/>
<path d="M160.898 52.7817V53.2623C160.713 53.2623 160.576 53.3481 160.486 53.5197C160.4 53.6871 160.357 53.8952 160.357 54.1462V62.7448C160.357 63.5579 160.606 64.2294 161.104 64.7615C161.601 65.2935 162.393 65.5596 163.481 65.5596C164.566 65.5596 165.36 65.2935 165.858 64.7615C166.36 64.2294 166.613 63.5579 166.613 62.7448V54.1462C166.613 53.5584 166.429 53.2623 166.064 53.2623V52.7817H170.149V53.2623C169.964 53.2623 169.827 53.3481 169.737 53.5197C169.644 53.6871 169.599 53.8952 169.599 54.1462V62.4016C169.599 64.1694 169.112 65.5381 168.141 66.5035C167.167 67.4646 165.613 67.9452 163.481 67.9452C161.353 67.9452 159.799 67.4646 158.821 66.5035C157.847 65.5381 157.362 64.1694 157.362 62.4016V54.1462C157.362 53.5584 157.158 53.2623 156.753 53.2623V52.7817H160.898Z" fill="white"/>
<path d="M200.561 65.3622C202.076 65.3622 203.189 64.9653 203.9 64.1694C204.614 63.3756 204.972 62.0733 204.972 60.2648C204.972 58.4284 204.608 57.1197 203.882 56.3345C203.162 55.5514 202.055 55.1588 200.561 55.1588H197.841V65.3622H200.561ZM200.896 52.7817C203.069 52.7817 204.768 53.3996 205.993 54.6353C207.216 55.8711 207.83 57.7483 207.83 60.2648C207.83 62.7534 207.223 64.622 206.011 65.8685C204.796 67.1171 203.059 67.7393 200.793 67.7393H194.237V67.2673C194.642 67.2673 194.846 66.9734 194.846 66.3834V54.1119C194.846 53.5455 194.642 53.2623 194.237 53.2623V52.7817H200.896Z" fill="white"/>
<path d="M236.552 52.7817V53.2623C236.076 53.2623 235.84 53.5584 235.84 54.1462V66.4177C235.84 66.9841 236.076 67.2673 236.552 67.2673V67.7393H232.133V67.2673C232.607 67.2673 232.845 66.9734 232.845 66.3834V54.1462C232.845 53.5584 232.607 53.2623 232.133 53.2623V52.7817H236.552Z" fill="white"/>
<path d="M267.729 67.9456C266.686 67.9456 265.723 67.759 264.837 67.3878C263.955 67.0102 263.198 66.4825 262.563 65.8002C261.928 65.1202 261.432 64.3113 261.078 63.3717C260.728 62.4341 260.555 61.3979 260.555 60.2652C260.555 59.1496 260.728 58.1241 261.078 57.1844C261.432 56.2469 261.928 55.4381 262.563 54.7559C263.198 54.0758 263.949 53.5437 264.82 53.1597C265.695 52.7714 266.665 52.5762 267.729 52.5762C268.769 52.5762 269.73 52.765 270.612 53.1425C271.498 53.5158 272.26 54.0415 272.895 54.7215C273.53 55.4038 274.021 56.2147 274.371 57.1587C274.725 58.0984 274.903 59.1324 274.903 60.2652C274.903 61.3979 274.725 62.4341 274.371 63.3717C274.021 64.3113 273.53 65.1202 272.895 65.8002C272.26 66.4825 271.498 67.0102 270.612 67.3878C269.73 67.759 268.769 67.9456 267.729 67.9456ZM263.412 60.2652C263.412 61.0547 263.517 61.7734 263.73 62.4191C263.947 63.067 264.24 63.6205 264.614 64.0839C264.991 64.5473 265.446 64.912 265.978 65.1738C266.51 65.4312 267.094 65.56 267.729 65.56C268.364 65.56 268.947 65.4312 269.479 65.1738C270.011 64.912 270.462 64.5473 270.835 64.0839C271.213 63.6205 271.507 63.067 271.719 62.4191C271.936 61.7734 272.045 61.0547 272.045 60.2652C272.045 59.4928 271.936 58.7784 271.719 58.1198C271.507 57.4633 271.213 56.9012 270.835 56.4378C270.462 55.9744 270.011 55.614 269.479 55.3566C268.947 55.0948 268.364 54.9618 267.729 54.9618C266.459 54.9618 265.42 55.4488 264.614 56.4207C263.811 57.3947 263.412 58.6755 263.412 60.2652Z" fill="white"/>
</svg>
