<svg width="400" height="400" viewBox="0 0 400 400" fill="none" xmlns="http://www.w3.org/2000/svg">
<mask id="mask0_292_117" style="mask-type:luminance" maskUnits="userSpaceOnUse" x="72" y="52" width="256" height="297">
<path d="M72 52H327.107V348.636H72V52Z" fill="white"/>
</mask>
<g mask="url(#mask0_292_117)">
<path d="M199.548 348.575C198.683 348.575 197.849 348.421 197.045 348.081C74.405 294.717 72.0566 111.638 72.0566 103.851C72.0566 102.151 72.6437 100.699 73.8797 99.4632C75.0848 98.2581 76.5371 97.671 78.2674 97.671C139.696 97.362 194.511 53.8864 195.006 53.4538C196.118 52.5577 197.416 52.0942 198.868 52.0942H200.228C201.68 52.0633 203.009 52.5268 204.152 53.4538C204.647 53.8864 259.462 97.362 320.86 97.671C322.59 97.671 324.042 98.2581 325.278 99.4632C326.483 100.699 327.101 102.151 327.101 103.851C327.101 111.638 324.722 294.717 202.082 348.081C201.278 348.421 200.413 348.575 199.548 348.575ZM84.6637 109.845C86.1777 141.579 98.6302 289.464 199.548 335.597C300.466 289.464 312.919 141.579 314.402 109.845C259.339 107.188 211.97 74.929 199.548 65.5355C187.096 74.929 139.758 107.188 84.6637 109.845Z" fill="#1E6EF9"/>
</g>
<path d="M199.553 308.558C198.687 308.589 197.853 308.404 197.05 308.064C107.905 269.316 106.205 136.633 106.205 131.009C106.205 129.31 106.823 127.858 108.028 126.653C109.233 125.448 110.716 124.86 112.447 124.86C155.984 124.86 194.825 93.9609 195.196 93.4665C196.339 92.5395 197.637 92.1069 199.12 92.1069H200.109C201.561 92.1069 202.89 92.5395 204.033 93.4665C204.404 93.7755 243.275 124.366 286.782 124.86C288.481 124.86 289.965 125.448 291.17 126.653C292.406 127.858 292.993 129.31 292.993 131.009C292.993 136.633 291.324 269.316 202.148 308.064C201.314 308.435 200.449 308.589 199.553 308.558ZM118.658 136.942C120.079 162.589 130.09 263.229 199.553 295.642C268.922 263.229 278.81 162.589 280.417 136.942C242.534 134.532 210.12 113.242 199.553 105.641C189.139 113.242 156.726 134.532 118.658 136.942Z" fill="#1E6EF9"/>
<path d="M226.257 195.128H172.863C171.132 195.128 169.68 194.541 168.444 193.336C167.239 192.131 166.621 190.679 166.621 188.979V176.619C166.652 174.518 166.868 172.448 167.301 170.378C167.733 168.307 168.382 166.33 169.186 164.383C170.02 162.467 171.009 160.613 172.214 158.883C173.388 157.153 174.748 155.546 176.231 154.063C177.745 152.579 179.383 151.251 181.144 150.107C182.905 148.933 184.759 147.945 186.706 147.172C188.683 146.369 190.692 145.751 192.762 145.349C194.832 144.947 196.934 144.731 199.066 144.731H200.054C202.186 144.731 204.288 144.947 206.358 145.349C208.459 145.782 210.498 146.369 212.445 147.203C214.423 148.006 216.277 148.995 218.069 150.169C219.83 151.343 221.468 152.672 222.982 154.155C224.465 155.669 225.825 157.276 226.999 159.037C228.173 160.799 229.193 162.653 229.996 164.599C230.799 166.546 231.417 168.585 231.85 170.656C232.252 172.726 232.468 174.796 232.468 176.928V189.288C232.375 190.926 231.726 192.316 230.521 193.46C229.347 194.572 227.895 195.159 226.257 195.128ZM179.074 182.799H220.015V176.619C219.985 174.024 219.428 171.521 218.409 169.111C217.389 166.731 215.937 164.63 214.052 162.776C212.198 160.953 210.035 159.563 207.625 158.574C205.184 157.585 202.681 157.091 200.054 157.091H199.066C196.408 157.091 193.844 157.585 191.403 158.605C188.961 159.594 186.798 161.046 184.914 162.9C183.06 164.754 181.607 166.917 180.588 169.327C179.599 171.768 179.074 174.302 179.074 176.928V182.799Z" fill="#1E6EF9"/>
<path d="M232.892 246.235H166.18C164.48 246.235 162.997 245.617 161.792 244.412C160.587 243.207 159.969 241.755 159.969 240.055V188.978C159.969 187.248 160.587 185.796 161.792 184.591C162.997 183.385 164.48 182.798 166.18 182.798H232.892C234.622 182.798 236.074 183.385 237.279 184.591C238.515 185.796 239.102 187.248 239.102 188.978V240.055C239.102 241.755 238.515 243.207 237.279 244.412C236.074 245.617 234.622 246.235 232.892 246.235ZM172.421 233.875H226.681V195.127H172.421V233.875Z" fill="#1E6EF9"/>
</svg>
